<svg width="35" height="22" viewBox="0 0 35 22" fill="none" xmlns="http://www.w3.org/2000/svg">
<path d="M13.5583 20.8932L13.5488 20.8897L13.5188 20.8757C13.3435 20.7931 13.1696 20.7083 12.9972 20.6214C10.9239 19.5661 8.98643 18.3265 7.2168 16.923C4.0828 14.4182 0.762207 10.7012 0.762207 6.12319C0.762207 2.70719 4.11821 -0.00180931 8.16885 -0.00180931C9.2949 -0.00653364 10.4077 0.206255 11.4245 0.62073C12.4413 1.03521 13.3359 1.6407 14.0419 2.39219C14.7479 1.64055 15.6428 1.03496 16.6598 0.620476C17.6769 0.205994 18.79 -0.00670932 19.9162 -0.00180931C23.9655 -0.00180931 27.3215 2.70719 27.3215 6.12319C27.3215 10.7024 24.0009 14.4194 20.8669 16.9219C19.0973 18.3253 17.1598 19.565 15.0865 20.6202C14.9141 20.7075 14.7402 20.7927 14.5649 20.8757L14.5349 20.8897L14.5254 20.8944L14.5213 20.8955C14.3736 20.9625 14.209 20.9976 14.0419 20.9976C13.8747 20.9976 13.7101 20.9625 13.5624 20.8955L13.5583 20.8932Z" fill="white"/>
<path d="M25.5918 18.9649L29.3159 12.7316H26.7475V8.69823L22.895 14.9316H25.5918V18.9649ZM26.1054 21.1649C24.9211 21.1649 23.8082 20.9724 22.7665 20.5874C21.7249 20.2024 20.8189 19.6799 20.0484 19.0199C19.2778 18.3599 18.6679 17.5838 18.2184 16.6916C17.7689 15.7993 17.5442 14.846 17.5442 13.8316C17.5442 12.8171 17.7689 11.8638 18.2184 10.9716C18.6679 10.0793 19.2778 9.30323 20.0484 8.64323C20.8189 7.98323 21.7249 7.46073 22.7665 7.07573C23.8082 6.69073 24.9211 6.49823 26.1054 6.49823C27.2897 6.49823 28.4027 6.69073 29.4443 7.07573C30.4859 7.46073 31.392 7.98323 32.1625 8.64323C32.933 9.30323 33.543 10.0793 33.9925 10.9716C34.4419 11.8638 34.6667 12.8171 34.6667 13.8316C34.6667 14.846 34.4419 15.7993 33.9925 16.6916C33.543 17.5838 32.933 18.3599 32.1625 19.0199C31.392 19.6799 30.4859 20.2024 29.4443 20.5874C28.4027 20.9724 27.2897 21.1649 26.1054 21.1649Z" fill="#894189"/>
<path d="M26.0276 18.4982L29.4132 12.8315H27.0783V9.16486L23.576 14.8315H26.0276V18.4982ZM26.4946 20.4982C25.418 20.4982 24.4062 20.3232 23.4593 19.9732C22.5123 19.6232 21.6886 19.1482 20.9882 18.5482C20.2877 17.9482 19.7332 17.2426 19.3246 16.4315C18.916 15.6204 18.7117 14.7537 18.7117 13.8315C18.7117 12.9093 18.916 12.0426 19.3246 11.2315C19.7332 10.4204 20.2877 9.71486 20.9882 9.11486C21.6886 8.51486 22.5123 8.03986 23.4593 7.68986C24.4062 7.33986 25.418 7.16486 26.4946 7.16486C27.5713 7.16486 28.583 7.33986 29.53 7.68986C30.4769 8.03986 31.3006 8.51486 32.0011 9.11486C32.7015 9.71486 33.256 10.4204 33.6647 11.2315C34.0733 12.0426 34.2776 12.9093 34.2776 13.8315C34.2776 14.7537 34.0733 15.6204 33.6647 16.4315C33.256 17.2426 32.7015 17.9482 32.0011 18.5482C31.3006 19.1482 30.4769 19.6232 29.53 19.9732C28.583 20.3232 27.5713 20.4982 26.4946 20.4982Z" fill="white"/>
</svg>
